<svg width="132" height="132" viewBox="0 0 132 132" fill="none" xmlns="http://www.w3.org/2000/svg">
<path d="M32.4637 59.6501H17.0517V64.2159H27.9675C27.4312 70.638 22.0816 73.3476 17.0517 73.3476C10.5935 73.3476 4.99383 68.2816 4.99383 61.1815C4.99383 54.2592 10.346 48.9457 17.0517 48.9457C22.2234 48.9457 25.294 52.2637 25.294 52.2637L28.5037 48.9457C28.5037 48.9457 24.4019 44.3798 16.9099 44.3798C7.38375 44.3798 0 52.4442 0 61.1119C0 69.6377 6.95578 77.9496 17.16 77.9496C26.1499 77.9496 32.7138 71.7776 32.7138 62.6794C32.7138 60.7561 32.4637 59.6501 32.4637 59.6501Z" fill="#4285F4"/>
<path d="M45.0579 56.332C38.7441 56.332 34.2117 61.2898 34.2117 67.0338C34.2117 72.8836 38.5997 77.9161 45.1275 77.9161C51.0495 77.9161 55.8654 73.3863 55.8654 67.1782C55.9041 60.0059 50.2683 56.332 45.0579 56.332ZM45.1301 60.5782C48.2342 60.5782 51.1938 63.0764 51.1938 67.1421C51.1938 71.1021 48.2677 73.706 45.1301 73.706C41.6702 73.706 38.9581 70.9577 38.9581 67.1421C38.9581 63.36 41.6342 60.5782 45.1301 60.5782Z" fill="#EA4335"/>
<path d="M68.6761 56.332C62.3623 56.332 57.8299 61.2898 57.8299 67.0338C57.8299 72.8836 62.2179 77.9161 68.7457 77.9161C74.6677 77.9161 79.4836 73.3863 79.4836 67.1782C79.4862 60.0059 73.8478 56.332 68.6761 56.332ZM68.7483 60.5782C71.8523 60.5782 74.812 63.0764 74.812 67.1421C74.812 71.1021 71.8859 73.706 68.7483 73.706C65.2884 73.706 62.5763 70.9577 62.5763 67.1421C62.5402 63.36 65.2498 60.5782 68.7483 60.5782Z" fill="#FBBC05"/>
<path d="M91.7941 56.332C85.9779 56.332 81.4481 61.398 81.4481 67.106C81.4481 73.5977 86.7281 77.9161 91.7219 77.9161C94.7899 77.9161 96.4322 76.7044 97.6439 75.2761V77.4159C97.6439 81.1259 95.3958 83.374 91.972 83.374C88.6901 83.374 87.0143 80.9119 86.4419 79.5223L82.3041 81.2702C83.7658 84.3743 86.7281 87.6202 92.0081 87.6202C97.7883 87.6202 102.176 83.9824 102.176 76.3821V56.974H97.6465V58.7941C96.2517 57.3298 94.3258 56.332 91.7941 56.332ZM92.2221 60.5782C95.0761 60.5782 98.0023 63.0042 98.0023 67.1421C98.0023 71.3522 95.0761 73.6699 92.186 73.6699C89.0819 73.6699 86.228 71.1717 86.228 67.1782C86.1919 63.0377 89.1902 60.5782 92.2221 60.5782Z" fill="#4285F4"/>
<path d="M122.26 56.332C116.802 56.332 112.2 60.6839 112.2 67.106C112.2 73.92 117.338 77.9522 122.796 77.9522C127.362 77.9522 130.18 75.454 131.822 73.2084L128.076 70.7102C127.112 72.2081 125.472 73.6725 122.796 73.6725C119.764 73.6725 118.372 71.9967 117.516 70.3905L132 64.3938L131.25 62.6459C129.86 59.186 126.578 56.332 122.26 56.332ZM122.474 60.4699C124.436 60.4699 125.864 61.5037 126.47 62.7877L116.802 66.8198C116.374 63.6823 119.336 60.4699 122.474 60.4699Z" fill="#EA4335"/>
<path d="M110.058 45.4858H105.314V77.3076H110.058V45.4858Z" fill="#34A853"/>
</svg>
