<svg width="207" height="24" viewBox="0 0 207 24" fill="none" xmlns="http://www.w3.org/2000/svg">
<path fill-rule="evenodd" clip-rule="evenodd" d="M16.9209 0.5C17.1173 0.5 17.25 0.631235 17.25 0.828765V3.85124C17.25 4.04876 17.1173 4.18 16.9209 4.18H3.91708V10.3575H14.5842C14.7806 10.3575 14.9133 10.4888 14.9133 10.6863V13.7088C14.9133 13.9063 14.7806 14.0375 14.5842 14.0375H3.91708V23.1712C3.91708 23.3688 3.78571 23.5 3.588 23.5H0.329077C0.132692 23.5 0 23.3688 0 23.1712V0.828765C0 0.631235 0.132692 0.5 0.329077 0.5H16.9209ZM34.1868 0.5C34.3394 0.5 34.4615 0.566294 34.5226 0.73C37.5519 7.76124 40.5189 15.8112 42.4456 23.1388C42.5067 23.3688 42.3846 23.5 42.1709 23.5H38.8364C38.6519 23.5 38.5312 23.4012 38.4993 23.2037C38.0236 21.2284 37.4931 19.2672 36.9084 17.3225H26.6605C26.0762 19.2672 25.5461 21.2284 25.0709 23.2037C25.0404 23.4012 24.917 23.5 24.7338 23.5H21.5227C21.3077 23.5 21.1857 23.3688 21.2467 23.1388C23.1734 15.8112 26.1404 7.76124 29.1684 0.73C29.2308 0.566294 29.3529 0.5 29.5055 0.5H34.1868ZM58.9021 0.5C62.9506 0.5 66.0489 2.57676 67.6439 5.89824C67.7049 6.09035 67.6744 6.21753 67.4594 6.31359L64.5455 7.49606C64.3929 7.55965 64.2403 7.49606 64.1474 7.33641C63.0726 5.25965 61.2017 4.07718 58.6872 4.07718H58.228C54.3932 4.07718 51.6014 7.24035 51.6014 12.1921C51.6014 16.8868 54.5166 19.9228 58.228 19.9228H58.6872C61.142 19.9228 62.92 19.0272 63.963 17.4632C64.0864 17.3022 64.2085 17.2711 64.3611 17.3346L67.3984 18.4522C67.5828 18.5171 67.6439 18.7092 67.5523 18.9C65.895 21.775 62.798 23.5 58.7482 23.5H58.2891C51.7885 23.5 47.7692 18.9325 47.7692 12.1921C47.7692 5.41929 52.0326 0.5 58.443 0.5H58.9021ZM92.2822 0.5C92.4719 0.5 92.598 0.631235 92.598 0.828765V3.85124C92.598 4.04876 92.4719 4.18 92.2822 4.18H79.4004V10.16H89.8765C90.0662 10.16 90.1923 10.2912 90.1923 10.4888V13.4788C90.1923 13.6763 90.0662 13.8075 89.8765 13.8075H79.4004V19.82H92.5662C92.7572 19.82 92.8833 19.9512 92.8833 20.1488V23.1712C92.8833 23.3688 92.7572 23.5 92.5662 23.5H75.9531C75.762 23.5 75.6359 23.3688 75.6359 23.1712V0.828765C75.6359 0.631235 75.762 0.5 75.9531 0.5H92.2848H92.2822ZM111.347 0.5C116.664 0.5 119.419 2.63629 119.419 6.41371C119.419 8.68123 118.446 10.5537 115.595 11.4088C119.194 12.23 120.75 14.3663 120.75 17.1912C120.75 21.1675 117.767 23.5 112.321 23.5H101.17C100.976 23.5 100.846 23.3688 100.846 23.1712V0.828765C100.846 0.631235 100.976 0.5 101.17 0.5H111.347ZM138.908 0.5C145.64 0.5 149.942 5.32324 149.942 12C149.942 18.7079 145.64 23.5 138.909 23.5H138.449C131.688 23.5 127.385 18.7079 127.385 12C127.385 5.32324 131.688 0.5 138.449 0.5H138.908ZM168.1 0.5C174.831 0.5 179.135 5.32324 179.135 12C179.135 18.7079 174.831 23.5 168.101 23.5H167.641C160.88 23.5 156.577 18.7079 156.577 12C156.577 5.32324 160.88 0.5 167.641 0.5H168.1ZM190.598 0.5C190.79 0.5 190.919 0.631235 190.919 0.828765V9.93H193.103C196.252 6.97247 199.048 3.85124 201.362 0.697529C201.414 0.636696 201.478 0.587679 201.55 0.553652C201.621 0.519625 201.699 0.501346 201.779 0.5L205.731 0.5C205.989 0.5 206.084 0.663706 205.924 0.861235C203.064 4.64 199.754 8.18876 196.091 11.6388C199.947 15.1212 203.611 19.0312 206.919 23.1063C207.081 23.3025 206.985 23.5 206.728 23.5H202.518C202.439 23.4987 202.361 23.4804 202.289 23.4463C202.217 23.4123 202.153 23.3633 202.101 23.3025C199.241 19.6888 195.931 16.2388 193.104 13.6425H190.919V23.1712C190.919 23.3688 190.79 23.5 190.598 23.5H187.416C187.224 23.5 187.095 23.3688 187.095 23.1712V0.828765C187.095 0.631235 187.224 0.5 187.416 0.5H190.598ZM112.29 13.7412H104.704V19.9188H112.386C115.336 19.9188 116.794 18.9 116.794 16.8963C116.794 14.8263 115.758 13.7412 112.29 13.7412ZM138.909 4.14212H138.449C134.054 4.14212 131.257 7.24035 131.257 12C131.257 16.7596 134.023 19.8579 138.449 19.8579H138.909C143.304 19.8579 146.07 16.7596 146.07 12C146.07 7.24035 143.273 4.14212 138.909 4.14212ZM168.101 4.14212H167.641C163.246 4.14212 160.449 7.24035 160.449 12C160.449 16.7596 163.216 19.8579 167.641 19.8579H168.101C172.496 19.8579 175.263 16.7596 175.263 12C175.263 7.24035 172.466 4.14212 168.101 4.14212ZM32.1381 4.11506H31.4043C30.0867 7.28935 28.8828 10.5115 27.7951 13.7751H35.7778C34.6667 10.516 33.4528 7.29434 32.1381 4.11506ZM111.253 4.08124H104.705V10.2588H111.415C114.333 10.2588 115.533 9.20753 115.533 7.20247C115.533 5.1 114.268 4.08124 111.253 4.08124Z" fill="white"/>
</svg>
