<svg width="132" height="132" viewBox="0 0 132 132" fill="none" xmlns="http://www.w3.org/2000/svg">
<rect width="132" height="132" fill="black"/>
<path d="M119.867 58.3494H116.468V76.4224H113.13V58.3494H109.736V55.5774H119.867V58.3494ZM120.61 55.5774H124.179L125.29 64.9439C125.604 67.6279 125.895 69.9379 126.236 73.1059H126.379C126.693 69.9379 127.006 67.6829 127.314 64.9439L128.458 55.5774H132L128.574 76.3894H124.063L120.61 55.5774ZM33.9405 57.6674C33.7438 56.9322 33.3588 56.2609 32.8235 55.7198C32.2882 55.1787 31.6211 54.7865 30.888 54.5819C28.1765 53.8669 17.3305 53.8669 17.3305 53.8669C17.3305 53.8669 6.479 53.8669 3.7675 54.5819C3.03277 54.7815 2.36368 55.1714 1.82774 55.7121C1.2918 56.2529 0.907979 56.9255 0.715 57.6619C0 60.3734 0 65.9999 0 65.9999C0 65.9999 0 71.6539 0.715 74.3379C0.913929 75.076 1.30309 75.7489 1.84358 76.2894C2.38407 76.8299 3.05697 77.219 3.795 77.4179C6.479 78.1329 17.325 78.1329 17.325 78.1329C17.325 78.1329 28.1765 78.1329 30.888 77.4179C31.6198 77.2155 32.2874 76.8285 32.8267 76.294C33.366 75.7595 33.759 75.0954 33.968 74.3654C34.683 71.6539 34.683 66.0274 34.683 66.0274C34.683 66.0274 34.6555 60.3734 33.9405 57.6674ZM13.871 71.1974V60.8024L22.891 65.9999L13.871 71.1974ZM50.3305 75.9659C49.5884 75.4512 49.0679 74.6753 48.873 73.7934C48.5598 72.5236 48.4156 71.218 48.444 69.9104V67.7104C48.4135 66.3794 48.586 65.0515 48.9555 63.7724C49.2054 62.895 49.7491 62.13 50.4955 61.6054C51.337 61.1214 52.2974 60.8832 53.2675 60.9179C54.384 60.9179 55.297 61.1489 55.979 61.6054C56.694 62.1444 57.2385 62.8869 57.464 63.7724C57.805 65.0594 57.981 66.3684 57.9205 67.7104V69.9104C57.948 71.2249 57.8105 72.5394 57.464 73.8209C57.2395 74.6971 56.7138 75.4662 55.979 75.9934C55.297 76.4499 54.351 76.6754 53.185 76.6754C51.986 76.6479 51.0125 76.4224 50.325 75.9604L50.3305 75.9659ZM54.1805 73.5679C54.384 73.0784 54.4665 72.2479 54.4665 71.1369V66.4289C54.5001 65.6195 54.4036 64.8098 54.1805 64.0309C54.1216 63.8114 53.9923 63.6172 53.8125 63.4782C53.6327 63.3391 53.4123 63.2628 53.185 63.2609C52.96 63.262 52.7419 63.3385 52.5654 63.478C52.389 63.6176 52.2644 63.8123 52.2115 64.0309C51.986 64.8009 51.898 65.6259 51.9255 66.4289V71.1644C51.9255 72.2809 52.0135 73.1059 52.2115 73.5954C52.3215 74.0519 52.7285 74.3654 53.2125 74.3379C53.4365 74.3356 53.6534 74.2587 53.8287 74.1192C54.0041 73.9797 54.1279 73.7857 54.1805 73.5679ZM103.021 69.9379V70.7079C103.021 71.4504 103.053 72.1654 103.108 72.9079C103.133 73.2878 103.262 73.6535 103.483 73.9639C103.592 74.0796 103.726 74.1699 103.874 74.2288C104.022 74.2877 104.181 74.3137 104.341 74.3049C104.556 74.3197 104.771 74.2707 104.959 74.1641C105.146 74.0575 105.299 73.898 105.397 73.7054C105.595 73.3094 105.682 72.6494 105.71 71.7089L108.647 71.9069C108.674 72.0889 108.685 72.273 108.68 72.4569C108.68 73.8484 108.306 74.9044 107.536 75.5919C106.766 76.2794 105.682 76.6204 104.28 76.6204C102.597 76.6204 101.425 76.0759 100.743 75.0254C100.061 73.9749 99.715 72.3359 99.715 70.1084V67.4574C99.715 65.1694 100.056 63.5139 100.771 62.4579C101.486 61.4019 102.685 60.8904 104.368 60.8904C105.539 60.8904 106.452 61.1159 107.079 61.5504C107.739 62.0344 108.218 62.7439 108.421 63.5469C108.707 64.7734 108.851 66.0549 108.79 67.3144V69.9104L103.021 69.9379ZM103.455 63.5469C103.243 63.8596 103.123 64.2255 103.108 64.6029C103.054 65.3442 103.026 66.0872 103.026 66.8304V67.9139H105.539V66.8304C105.539 66.0879 105.506 65.3454 105.424 64.6029C105.4 64.2231 105.27 63.8574 105.05 63.5469C104.951 63.4363 104.827 63.3504 104.688 63.2959C104.55 63.2415 104.401 63.2201 104.252 63.2334C104.104 63.2179 103.954 63.2382 103.815 63.2928C103.677 63.3474 103.553 63.4345 103.455 63.5469ZM41.9925 69.6519L38.1095 55.5774H41.5085L42.878 61.9464C43.219 63.5139 43.4775 64.8614 43.648 65.9724H43.758C43.879 65.1694 44.132 63.8604 44.528 61.9739L45.958 55.5774H49.357L45.419 69.6574V76.4224H42.02V69.6574H41.9925V69.6519ZM68.97 61.2039V76.4224H66.286L66 74.5634H65.912C65.197 75.9659 64.086 76.6754 62.634 76.6754C61.633 76.6754 60.8905 76.3344 60.4065 75.6799C59.917 75.0199 59.6915 73.9914 59.6915 72.5669V61.2039H63.118V72.3689C63.0932 72.8633 63.17 73.3574 63.3435 73.8209C63.409 73.9595 63.5151 74.0747 63.6478 74.1514C63.7804 74.228 63.9333 74.2624 64.086 74.2499C64.3942 74.2426 64.6931 74.143 64.944 73.9639C65.2076 73.8018 65.4165 73.5642 65.5435 73.2819V61.2039H68.97ZM86.526 61.2039V76.4224H83.842L83.556 74.5634H83.468C82.753 75.9659 81.642 76.6754 80.19 76.6754C79.189 76.6754 78.4465 76.3344 77.9625 75.6799C77.473 75.0199 77.2475 73.9914 77.2475 72.5669V61.2039H80.674V72.3689C80.6492 72.8633 80.726 73.3574 80.8995 73.8209C80.965 73.9595 81.0711 74.0747 81.2038 74.1514C81.3364 74.228 81.4893 74.2624 81.642 74.2499C81.9502 74.2426 82.2491 74.143 82.5 73.9639C82.7636 73.8018 82.9725 73.5642 83.0995 73.2819V61.2039H86.526ZM78.276 58.3439H74.877V76.4224H71.5385V58.3494H68.1395V55.5774H78.276V58.3494V58.3439ZM97.856 63.6294C97.658 62.6889 97.317 61.9794 96.8605 61.5449C96.3274 61.0934 95.6446 60.8579 94.9465 60.8849C94.3137 60.882 93.6953 61.074 93.1755 61.4349C92.6378 61.7774 92.2042 62.2606 91.9215 62.8319H91.894V54.8074H88.6105V76.4224H91.4375L91.7785 74.9924H91.861C92.1289 75.5121 92.5466 75.9393 93.06 76.2189C93.6043 76.5132 94.2123 76.6699 94.831 76.6754C95.3679 76.6882 95.8968 76.5441 96.353 76.2608C96.8092 75.9775 97.1729 75.5673 97.3995 75.0804C97.944 74.0244 98.2245 72.3359 98.2245 70.0809V67.6829C98.2048 66.3244 98.0817 64.9693 97.856 63.6294ZM94.721 69.8279C94.721 70.6804 94.688 71.5659 94.578 72.4239C94.5421 72.9036 94.3829 73.3658 94.116 73.7659C94.0133 73.8923 93.8832 73.9937 93.7354 74.0623C93.5877 74.1309 93.4263 74.165 93.2635 74.1619C92.9932 74.171 92.7259 74.1023 92.4935 73.9639C92.2549 73.816 92.0581 73.6097 91.9215 73.3644V64.7459C92.0292 64.3571 92.2358 64.0028 92.521 63.7174C92.6368 63.5906 92.7778 63.4893 92.935 63.4202C93.0923 63.351 93.2622 63.3155 93.434 63.3159C93.7475 63.3159 94.061 63.4589 94.2315 63.7174C94.4625 64.1464 94.6055 64.5974 94.633 65.0869C94.7155 65.9999 94.743 66.9129 94.743 67.8259L94.721 69.8279Z" fill="white"/>
</svg>
