<svg width="132" height="132" viewBox="0 0 132 132" fill="none" xmlns="http://www.w3.org/2000/svg">
<path d="M119.867 58.3495H116.468V76.4225H113.13V58.3495H109.736V55.5775H119.867V58.3495ZM120.61 55.5775H124.179L125.29 64.944C125.604 67.628 125.895 69.938 126.236 73.106H126.379C126.693 69.938 127.006 67.683 127.314 64.944L128.458 55.5775H132L128.574 76.3895H124.063L120.61 55.5775ZM33.9405 57.6675C33.7438 56.9322 33.3588 56.2609 32.8235 55.7199C32.2882 55.1788 31.6211 54.7866 30.888 54.582C28.1765 53.867 17.3305 53.867 17.3305 53.867C17.3305 53.867 6.479 53.867 3.7675 54.582C3.03277 54.7816 2.36368 55.1714 1.82774 55.7122C1.2918 56.253 0.907979 56.9255 0.715 57.662C0 60.3735 0 66 0 66C0 66 0 71.654 0.715 74.338C0.913929 75.076 1.30309 75.7489 1.84358 76.2894C2.38407 76.8299 3.05697 77.2191 3.795 77.418C6.479 78.133 17.325 78.133 17.325 78.133C17.325 78.133 28.1765 78.133 30.888 77.418C31.6198 77.2156 32.2874 76.8286 32.8267 76.2941C33.366 75.7596 33.759 75.0955 33.968 74.3655C34.683 71.654 34.683 66.0275 34.683 66.0275C34.683 66.0275 34.6555 60.3735 33.9405 57.6675ZM13.871 71.1975V60.8025L22.891 66L13.871 71.1975ZM50.3305 75.966C49.5884 75.4512 49.0679 74.6754 48.873 73.7935C48.5598 72.5237 48.4156 71.2181 48.444 69.9105V67.7105C48.4135 66.3795 48.586 65.0516 48.9555 63.7725C49.2054 62.8951 49.7491 62.1301 50.4955 61.6055C51.337 61.1214 52.2974 60.8832 53.2675 60.918C54.384 60.918 55.297 61.149 55.979 61.6055C56.694 62.1445 57.2385 62.887 57.464 63.7725C57.805 65.0595 57.981 66.3685 57.9205 67.7105V69.9105C57.948 71.225 57.8105 72.5395 57.464 73.821C57.2395 74.6971 56.7138 75.4662 55.979 75.9935C55.297 76.45 54.351 76.6755 53.185 76.6755C51.986 76.648 51.0125 76.4225 50.325 75.9605L50.3305 75.966ZM54.1805 73.568C54.384 73.0785 54.4665 72.248 54.4665 71.137V66.429C54.5001 65.6195 54.4036 64.8099 54.1805 64.031C54.1216 63.8115 53.9923 63.6173 53.8125 63.4782C53.6327 63.3392 53.4123 63.2629 53.185 63.261C52.96 63.2621 52.7419 63.3385 52.5654 63.4781C52.389 63.6177 52.2644 63.8123 52.2115 64.031C51.986 64.801 51.898 65.626 51.9255 66.429V71.1645C51.9255 72.281 52.0135 73.106 52.2115 73.5955C52.3215 74.052 52.7285 74.3655 53.2125 74.338C53.4365 74.3357 53.6534 74.2587 53.8287 74.1192C54.0041 73.9798 54.1279 73.7858 54.1805 73.568ZM103.021 69.938V70.708C103.021 71.4505 103.053 72.1655 103.108 72.908C103.133 73.2879 103.262 73.6535 103.483 73.964C103.592 74.0796 103.726 74.17 103.874 74.2289C104.022 74.2878 104.181 74.3137 104.341 74.305C104.556 74.3198 104.771 74.2708 104.959 74.1642C105.146 74.0576 105.299 73.8981 105.397 73.7055C105.595 73.3095 105.682 72.6495 105.71 71.709L108.647 71.907C108.674 72.089 108.685 72.2731 108.68 72.457C108.68 73.8485 108.306 74.9045 107.536 75.592C106.766 76.2795 105.682 76.6205 104.28 76.6205C102.597 76.6205 101.425 76.076 100.743 75.0255C100.061 73.975 99.715 72.336 99.715 70.1085V67.4575C99.715 65.1695 100.056 63.514 100.771 62.458C101.486 61.402 102.685 60.8905 104.368 60.8905C105.539 60.8905 106.452 61.116 107.079 61.5505C107.739 62.0345 108.218 62.744 108.421 63.547C108.707 64.7735 108.851 66.055 108.79 67.3145V69.9105L103.021 69.938ZM103.455 63.547C103.243 63.8596 103.123 64.2255 103.108 64.603C103.054 65.3442 103.026 66.0872 103.026 66.8305V67.914H105.539V66.8305C105.539 66.088 105.506 65.3455 105.424 64.603C105.4 64.2231 105.27 63.8575 105.05 63.547C104.951 63.4364 104.827 63.3504 104.688 63.296C104.55 63.2416 104.401 63.2202 104.252 63.2335C104.104 63.2179 103.954 63.2383 103.815 63.2929C103.677 63.3474 103.553 63.4346 103.455 63.547ZM41.9925 69.652L38.1095 55.5775H41.5085L42.878 61.9465C43.219 63.514 43.4775 64.8615 43.648 65.9725H43.758C43.879 65.1695 44.132 63.8605 44.528 61.974L45.958 55.5775H49.357L45.419 69.6575V76.4225H42.02V69.6575H41.9925V69.652ZM68.97 61.204V76.4225H66.286L66 74.5635H65.912C65.197 75.966 64.086 76.6755 62.634 76.6755C61.633 76.6755 60.8905 76.3345 60.4065 75.68C59.917 75.02 59.6915 73.9915 59.6915 72.567V61.204H63.118V72.369C63.0932 72.8633 63.17 73.3575 63.3435 73.821C63.409 73.9595 63.5151 74.0748 63.6478 74.1514C63.7804 74.2281 63.9333 74.2625 64.086 74.25C64.3942 74.2427 64.6931 74.1431 64.944 73.964C65.2076 73.8018 65.4165 73.5642 65.5435 73.282V61.204H68.97ZM86.526 61.204V76.4225H83.842L83.556 74.5635H83.468C82.753 75.966 81.642 76.6755 80.19 76.6755C79.189 76.6755 78.4465 76.3345 77.9625 75.68C77.473 75.02 77.2475 73.9915 77.2475 72.567V61.204H80.674V72.369C80.6492 72.8633 80.726 73.3575 80.8995 73.821C80.965 73.9595 81.0711 74.0748 81.2038 74.1514C81.3364 74.2281 81.4893 74.2625 81.642 74.25C81.9502 74.2427 82.2491 74.1431 82.5 73.964C82.7636 73.8018 82.9725 73.5642 83.0995 73.282V61.204H86.526ZM78.276 58.344H74.877V76.4225H71.5385V58.3495H68.1395V55.5775H78.276V58.3495V58.344ZM97.856 63.6295C97.658 62.689 97.317 61.9795 96.8605 61.545C96.3274 61.0935 95.6446 60.858 94.9465 60.885C94.3137 60.882 93.6953 61.0741 93.1755 61.435C92.6378 61.7775 92.2042 62.2606 91.9215 62.832H91.894V54.8075H88.6105V76.4225H91.4375L91.7785 74.9925H91.861C92.1289 75.5121 92.5466 75.9394 93.06 76.219C93.6043 76.5133 94.2123 76.67 94.831 76.6755C95.3679 76.6882 95.8968 76.5441 96.353 76.2608C96.8092 75.9775 97.1729 75.5673 97.3995 75.0805C97.944 74.0245 98.2245 72.336 98.2245 70.081V67.683C98.2048 66.3244 98.0817 64.9693 97.856 63.6295ZM94.721 69.828C94.721 70.6805 94.688 71.566 94.578 72.424C94.5421 72.9037 94.3829 73.3659 94.116 73.766C94.0133 73.8924 93.8832 73.9938 93.7354 74.0624C93.5877 74.131 93.4263 74.1651 93.2635 74.162C92.9932 74.171 92.7259 74.1023 92.4935 73.964C92.2549 73.8161 92.0581 73.6097 91.9215 73.3645V64.746C92.0292 64.3572 92.2358 64.0029 92.521 63.7175C92.6368 63.5906 92.7778 63.4894 92.935 63.4202C93.0923 63.3511 93.2622 63.3156 93.434 63.316C93.7475 63.316 94.061 63.459 94.2315 63.7175C94.4625 64.1465 94.6055 64.5975 94.633 65.087C94.7155 66 94.743 66.913 94.743 67.826L94.721 69.828Z" fill="black"/>
</svg>
